<mxfile host="app.diagrams.net" modified="2021-04-28T07:04:04.684Z" agent="5.0 (Windows NT 10.0; Win64; x64) AppleWebKit/537.36 (KHTML, like Gecko) Chrome/89.0.4389.128 Safari/537.36 OPR/75.0.3969.218" etag="C38s1xxPTLdaI3sPPTmG" version="14.6.6" type="github">
  <diagram name="Page-1" id="0783ab3e-0a74-02c8-0abd-f7b4e66b4bec">
    <mxGraphModel dx="1382" dy="795" grid="1" gridSize="10" guides="1" tooltips="1" connect="1" arrows="1" fold="1" page="1" pageScale="1" pageWidth="850" pageHeight="1100" background="#ffffff" math="0" shadow="0">
      <root>
        <mxCell id="0" />
        <mxCell id="1" parent="0" />
        <mxCell id="s83j-BUwnU0X72fGFEWC-13" style="edgeStyle=orthogonalEdgeStyle;rounded=0;orthogonalLoop=1;jettySize=auto;html=1;exitX=0.5;exitY=1;exitDx=0;exitDy=0;entryX=0.5;entryY=0;entryDx=0;entryDy=0;" edge="1" parent="1" source="s83j-BUwnU0X72fGFEWC-2" target="s83j-BUwnU0X72fGFEWC-4">
          <mxGeometry relative="1" as="geometry" />
        </mxCell>
        <mxCell id="s83j-BUwnU0X72fGFEWC-2" value="Start" style="html=1;" vertex="1" parent="1">
          <mxGeometry x="75" y="40" width="110" height="50" as="geometry" />
        </mxCell>
        <mxCell id="s83j-BUwnU0X72fGFEWC-15" style="edgeStyle=orthogonalEdgeStyle;shape=link;rounded=0;orthogonalLoop=1;jettySize=auto;html=1;exitX=1;exitY=0.25;exitDx=0;exitDy=0;entryX=0.125;entryY=0;entryDx=0;entryDy=0;entryPerimeter=0;" edge="1" parent="1" source="s83j-BUwnU0X72fGFEWC-4" target="s83j-BUwnU0X72fGFEWC-6">
          <mxGeometry relative="1" as="geometry" />
        </mxCell>
        <mxCell id="s83j-BUwnU0X72fGFEWC-17" style="edgeStyle=orthogonalEdgeStyle;rounded=0;orthogonalLoop=1;jettySize=auto;html=1;exitX=0.5;exitY=1;exitDx=0;exitDy=0;entryX=0.5;entryY=0;entryDx=0;entryDy=0;" edge="1" parent="1" source="s83j-BUwnU0X72fGFEWC-4" target="s83j-BUwnU0X72fGFEWC-16">
          <mxGeometry relative="1" as="geometry" />
        </mxCell>
        <mxCell id="s83j-BUwnU0X72fGFEWC-4" value="Abfrage &lt;br&gt;Attribute" style="html=1;" vertex="1" parent="1">
          <mxGeometry x="75" y="120" width="110" height="50" as="geometry" />
        </mxCell>
        <mxCell id="s83j-BUwnU0X72fGFEWC-6" value="Attribute" style="shape=umlFrame;whiteSpace=wrap;html=1;" vertex="1" parent="1">
          <mxGeometry x="235" y="120" width="240" height="170" as="geometry" />
        </mxCell>
        <mxCell id="s83j-BUwnU0X72fGFEWC-8" value="-v : Komplette Ausgabe (nicht unterstÃ¼tzt)" style="text;strokeColor=none;fillColor=none;align=left;verticalAlign=top;spacingLeft=4;spacingRight=4;overflow=hidden;rotatable=0;points=[[0,0.5],[1,0.5]];portConstraint=eastwest;fontStyle=2" vertex="1" parent="1">
          <mxGeometry x="235" y="160" width="240" height="26" as="geometry" />
        </mxCell>
        <mxCell id="s83j-BUwnU0X72fGFEWC-9" value="-n : Networkscan" style="text;strokeColor=none;fillColor=none;align=left;verticalAlign=top;spacingLeft=4;spacingRight=4;overflow=hidden;rotatable=0;points=[[0,0.5],[1,0.5]];portConstraint=eastwest;" vertex="1" parent="1">
          <mxGeometry x="235" y="186" width="240" height="26" as="geometry" />
        </mxCell>
        <mxCell id="s83j-BUwnU0X72fGFEWC-10" value="-l : Localscan" style="text;strokeColor=none;fillColor=none;align=left;verticalAlign=top;spacingLeft=4;spacingRight=4;overflow=hidden;rotatable=0;points=[[0,0.5],[1,0.5]];portConstraint=eastwest;" vertex="1" parent="1">
          <mxGeometry x="235" y="212" width="240" height="26" as="geometry" />
        </mxCell>
        <mxCell id="s83j-BUwnU0X72fGFEWC-11" value="-f : Fullscan (default)" style="text;strokeColor=none;fillColor=none;align=left;verticalAlign=top;spacingLeft=4;spacingRight=4;overflow=hidden;rotatable=0;points=[[0,0.5],[1,0.5]];portConstraint=eastwest;fontStyle=1" vertex="1" parent="1">
          <mxGeometry x="235" y="238" width="240" height="26" as="geometry" />
        </mxCell>
        <mxCell id="s83j-BUwnU0X72fGFEWC-12" value="-o : Outputpath" style="text;strokeColor=none;fillColor=none;align=left;verticalAlign=top;spacingLeft=4;spacingRight=4;overflow=hidden;rotatable=0;points=[[0,0.5],[1,0.5]];portConstraint=eastwest;" vertex="1" parent="1">
          <mxGeometry x="235" y="264" width="240" height="26" as="geometry" />
        </mxCell>
        <mxCell id="s83j-BUwnU0X72fGFEWC-19" style="edgeStyle=orthogonalEdgeStyle;rounded=0;orthogonalLoop=1;jettySize=auto;html=1;exitX=0.5;exitY=1;exitDx=0;exitDy=0;entryX=0.5;entryY=0;entryDx=0;entryDy=0;" edge="1" parent="1" source="s83j-BUwnU0X72fGFEWC-16" target="s83j-BUwnU0X72fGFEWC-18">
          <mxGeometry relative="1" as="geometry" />
        </mxCell>
        <mxCell id="s83j-BUwnU0X72fGFEWC-16" value="Setzen der &lt;br&gt;Einstellungen" style="html=1;" vertex="1" parent="1">
          <mxGeometry x="75" y="200" width="110" height="50" as="geometry" />
        </mxCell>
        <mxCell id="s83j-BUwnU0X72fGFEWC-22" style="edgeStyle=orthogonalEdgeStyle;rounded=0;orthogonalLoop=1;jettySize=auto;html=1;exitX=0.25;exitY=1;exitDx=0;exitDy=0;entryX=0;entryY=0;entryDx=20;entryDy=0;entryPerimeter=0;" edge="1" parent="1" source="s83j-BUwnU0X72fGFEWC-18" target="s83j-BUwnU0X72fGFEWC-20">
          <mxGeometry relative="1" as="geometry">
            <Array as="points">
              <mxPoint x="103" y="350" />
              <mxPoint x="60" y="350" />
            </Array>
          </mxGeometry>
        </mxCell>
        <mxCell id="s83j-BUwnU0X72fGFEWC-23" style="edgeStyle=orthogonalEdgeStyle;rounded=0;orthogonalLoop=1;jettySize=auto;html=1;exitX=0.75;exitY=1;exitDx=0;exitDy=0;entryX=0;entryY=0;entryDx=20;entryDy=0;entryPerimeter=0;" edge="1" parent="1" source="s83j-BUwnU0X72fGFEWC-18" target="s83j-BUwnU0X72fGFEWC-21">
          <mxGeometry relative="1" as="geometry">
            <Array as="points">
              <mxPoint x="158" y="350" />
              <mxPoint x="740" y="350" />
            </Array>
          </mxGeometry>
        </mxCell>
        <mxCell id="s83j-BUwnU0X72fGFEWC-18" value="Aufruf der &lt;br&gt;Funktionen" style="html=1;" vertex="1" parent="1">
          <mxGeometry x="75" y="290" width="110" height="50" as="geometry" />
        </mxCell>
        <mxCell id="s83j-BUwnU0X72fGFEWC-33" style="edgeStyle=orthogonalEdgeStyle;rounded=0;orthogonalLoop=1;jettySize=auto;html=1;exitX=0.5;exitY=1;exitDx=0;exitDy=0;exitPerimeter=0;fontSize=17;startArrow=none;startFill=0;endArrow=classic;endFill=1;" edge="1" parent="1" source="s83j-BUwnU0X72fGFEWC-20" target="s83j-BUwnU0X72fGFEWC-29">
          <mxGeometry relative="1" as="geometry">
            <Array as="points">
              <mxPoint x="80" y="430" />
              <mxPoint x="220" y="430" />
            </Array>
          </mxGeometry>
        </mxCell>
        <mxCell id="s83j-BUwnU0X72fGFEWC-20" value="get_local" style="shape=folder;fontStyle=1;spacingTop=10;tabWidth=40;tabHeight=14;tabPosition=left;html=1;" vertex="1" parent="1">
          <mxGeometry x="40" y="360" width="80" height="60" as="geometry" />
        </mxCell>
        <mxCell id="s83j-BUwnU0X72fGFEWC-34" style="edgeStyle=orthogonalEdgeStyle;rounded=0;orthogonalLoop=1;jettySize=auto;html=1;exitX=0.5;exitY=1;exitDx=0;exitDy=0;exitPerimeter=0;fontSize=17;startArrow=none;startFill=0;endArrow=classic;endFill=1;" edge="1" parent="1" source="s83j-BUwnU0X72fGFEWC-21" target="s83j-BUwnU0X72fGFEWC-30">
          <mxGeometry relative="1" as="geometry">
            <Array as="points">
              <mxPoint x="760" y="430" />
              <mxPoint x="620" y="430" />
            </Array>
          </mxGeometry>
        </mxCell>
        <mxCell id="s83j-BUwnU0X72fGFEWC-21" value="get_network" style="shape=folder;fontStyle=1;spacingTop=10;tabWidth=40;tabHeight=14;tabPosition=left;html=1;" vertex="1" parent="1">
          <mxGeometry x="720" y="360" width="80" height="60" as="geometry" />
        </mxCell>
        <mxCell id="s83j-BUwnU0X72fGFEWC-27" style="edgeStyle=orthogonalEdgeStyle;rounded=0;orthogonalLoop=1;jettySize=auto;html=1;exitX=0;exitY=0.75;exitDx=0;exitDy=0;entryX=0;entryY=0;entryDx=80;entryDy=37;entryPerimeter=0;dashed=1;fontSize=17;startArrow=none;startFill=0;endArrow=none;endFill=0;" edge="1" parent="1" source="s83j-BUwnU0X72fGFEWC-25" target="s83j-BUwnU0X72fGFEWC-20">
          <mxGeometry relative="1" as="geometry">
            <Array as="points">
              <mxPoint x="310" y="397" />
            </Array>
          </mxGeometry>
        </mxCell>
        <mxCell id="s83j-BUwnU0X72fGFEWC-28" style="edgeStyle=orthogonalEdgeStyle;rounded=0;orthogonalLoop=1;jettySize=auto;html=1;exitX=1;exitY=0.75;exitDx=0;exitDy=0;entryX=0;entryY=0;entryDx=0;entryDy=37;entryPerimeter=0;dashed=1;fontSize=17;startArrow=none;startFill=0;endArrow=none;endFill=0;" edge="1" parent="1" source="s83j-BUwnU0X72fGFEWC-25" target="s83j-BUwnU0X72fGFEWC-21">
          <mxGeometry relative="1" as="geometry">
            <Array as="points">
              <mxPoint x="540" y="397" />
            </Array>
          </mxGeometry>
        </mxCell>
        <mxCell id="s83j-BUwnU0X72fGFEWC-25" value="And / or" style="text;html=1;fillColor=none;align=center;verticalAlign=middle;whiteSpace=wrap;rounded=0;fontSize=17;fontStyle=1;dashed=1;strokeColor=#000000;" vertex="1" parent="1">
          <mxGeometry x="310" y="380" width="230" height="20" as="geometry" />
        </mxCell>
        <mxCell id="s83j-BUwnU0X72fGFEWC-29" value="get_local" style="shape=umlFrame;whiteSpace=wrap;html=1;fontSize=17;strokeColor=#000000;width=120;height=30;" vertex="1" parent="1">
          <mxGeometry x="40" y="440" width="360" height="400" as="geometry" />
        </mxCell>
        <mxCell id="s83j-BUwnU0X72fGFEWC-30" value="get_network" style="shape=umlFrame;whiteSpace=wrap;html=1;fontSize=17;strokeColor=#000000;width=120;height=30;" vertex="1" parent="1">
          <mxGeometry x="440" y="440" width="360" height="400" as="geometry" />
        </mxCell>
        <mxCell id="s83j-BUwnU0X72fGFEWC-35" value="zeitmessung start" style="text;strokeColor=none;fillColor=none;align=left;verticalAlign=top;spacingLeft=4;spacingRight=4;overflow=hidden;rotatable=0;points=[[0,0.5],[1,0.5]];portConstraint=eastwest;fontSize=17;" vertex="1" parent="1">
          <mxGeometry x="40" y="480" width="320" height="26" as="geometry" />
        </mxCell>
        <mxCell id="s83j-BUwnU0X72fGFEWC-36" value="out_csv(path, name, obj)" style="swimlane;fontStyle=0;childLayout=stackLayout;horizontal=1;startSize=26;fillColor=none;horizontalStack=0;resizeParent=1;resizeParentMax=0;resizeLast=0;collapsible=1;marginBottom=0;fontSize=17;strokeColor=#000000;" vertex="1" parent="1">
          <mxGeometry x="45" y="520" width="345" height="220" as="geometry" />
        </mxCell>
        <mxCell id="s83j-BUwnU0X72fGFEWC-37" value="Variablen : path, name, l_disk, l_gpu, l_if, l_core, l_process, &#xa;Â  Â  Â  Â  Â  Â  Â  Â  Â  c = (zÃ¤hlvariable fÃ¼r cores)" style="text;strokeColor=none;fillColor=none;align=left;verticalAlign=top;spacingLeft=4;spacingRight=4;overflow=hidden;rotatable=0;points=[[0,0.5],[1,0.5]];portConstraint=eastwest;" vertex="1" parent="s83j-BUwnU0X72fGFEWC-36">
          <mxGeometry y="26" width="345" height="34" as="geometry" />
        </mxCell>
        <mxCell id="s83j-BUwnU0X72fGFEWC-38" value="Erstellen Ordner (path)" style="text;strokeColor=none;fillColor=none;align=left;verticalAlign=top;spacingLeft=4;spacingRight=4;overflow=hidden;rotatable=0;points=[[0,0.5],[1,0.5]];portConstraint=eastwest;" vertex="1" parent="s83j-BUwnU0X72fGFEWC-36">
          <mxGeometry y="60" width="345" height="26" as="geometry" />
        </mxCell>
        <mxCell id="s83j-BUwnU0X72fGFEWC-41" value="Erstellen *.CSV datei (name)&#xa;Â  Â  Â  Â  Â  Â  Â  Â  Â  Â  &quot;key&quot;,&quot;value&quot;,&#xa;Â  Â  Â  Â  Â  Â  Â  Â  Â  Â  &quot;os_process&quot;,&quot;pid&quot;,&quot;name&quot;,&quot;status&quot;,&quot;create_time&quot;,&#xa;Â  Â  Â  Â  Â  Â  Â  Â  Â  Â  Â  Â  Â  Â  Â  &quot;cpu_usage&quot;,&quot;cpu_cores&quot;,&quot;memory&quot;,&quot;user&quot;,&#xa;Â  Â  Â  Â  Â  Â  Â  Â  Â  Â  &quot;device&quot;,&quot;mountpoint&quot;,&quot;filesystem&quot;,&quot;usage_total&quot;,&#xa;Â  Â  Â  Â  Â  Â  Â  Â  Â  Â  Â  Â  Â &quot;usage_used&quot;,&quot;usage_free&quot;,&quot;usage_percent&quot;,&#xa;Â  Â  Â  Â  Â  Â  Â  Â  Â  Â  &quot;gpu_id&quot;,&quot;gpu_name&quot;,&quot;gpu_usage&quot;,&quot;gpu_free&quot;,&#xa;Â  Â  Â  Â  Â  Â  Â  Â  Â  Â  Â  Â  Â  Â  Â  Â  Â  Â  Â &quot;gpu_used&quot;,&quot;gpu_total&quot;,&quot;gpu_temp&quot;,&#xa;Â  Â  Â  Â  Â  Â  Â  Â  Â  Â  &quot;if_name&quot;,&quot;if_address&quot;,&quot;if_netmask&quot;,&quot;if_broadcast&quot;" style="text;strokeColor=none;fillColor=none;align=left;verticalAlign=top;spacingLeft=4;spacingRight=4;overflow=hidden;rotatable=0;points=[[0,0.5],[1,0.5]];portConstraint=eastwest;" vertex="1" parent="s83j-BUwnU0X72fGFEWC-36">
          <mxGeometry y="86" width="345" height="134" as="geometry" />
        </mxCell>
        <mxCell id="s83j-BUwnU0X72fGFEWC-43" value="Erstellen obj von pc" style="text;strokeColor=none;fillColor=none;align=left;verticalAlign=top;spacingLeft=4;spacingRight=4;overflow=hidden;rotatable=0;points=[[0,0.5],[1,0.5]];portConstraint=eastwest;fontSize=17;" vertex="1" parent="1">
          <mxGeometry x="45" y="750" width="320" height="26" as="geometry" />
        </mxCell>
        <mxCell id="s83j-BUwnU0X72fGFEWC-44" value="Aufruf out_csv(path, obj.node, obj)" style="text;strokeColor=none;fillColor=none;align=left;verticalAlign=top;spacingLeft=4;spacingRight=4;overflow=hidden;rotatable=0;points=[[0,0.5],[1,0.5]];portConstraint=eastwest;fontSize=17;" vertex="1" parent="1">
          <mxGeometry x="45" y="776" width="320" height="26" as="geometry" />
        </mxCell>
        <mxCell id="s83j-BUwnU0X72fGFEWC-45" value="zeitmessung ende" style="text;strokeColor=none;fillColor=none;align=left;verticalAlign=top;spacingLeft=4;spacingRight=4;overflow=hidden;rotatable=0;points=[[0,0.5],[1,0.5]];portConstraint=eastwest;fontSize=17;" vertex="1" parent="1">
          <mxGeometry x="45" y="802" width="320" height="26" as="geometry" />
        </mxCell>
        <mxCell id="s83j-BUwnU0X72fGFEWC-46" value="pc" style="swimlane;fontStyle=0;childLayout=stackLayout;horizontal=1;startSize=26;fillColor=none;horizontalStack=0;resizeParent=1;resizeParentMax=0;resizeLast=0;collapsible=1;marginBottom=0;fontSize=17;strokeColor=#000000;" vertex="1" parent="1">
          <mxGeometry x="850" y="360" width="140" height="610" as="geometry" />
        </mxCell>
        <mxCell id="s83j-BUwnU0X72fGFEWC-47" value="Â  Â  node = &quot;&quot;Â  Â  Â  Â  Â  Â  Â  Â  Â  Â  Â  Â #PC Name&#xa;Â  Â Â &#xa;Â  Â  os_system = &quot;&quot;Â  Â  Â  Â  Â  Â  Â  #System Type &quot;Win, Linux, ...&quot;&#xa;Â  Â  os_rel = &quot;&quot;Â  Â  Â  Â  Â  Â  Â  Â  Â  Â  Â #OS Release &quot;10&quot;&#xa;Â  Â  os_ver = &quot;&quot;Â  Â  Â  Â  Â  Â  Â  Â  Â  Â  #OS Version &quot;10.0.18362&quot;&#xa;Â  Â  os_bootTime=&quot;&quot;Â  Â  Â  Â  Â  Â  #OS Startup&#xa;&#xa;Â  Â  sys_processes=[]Â  Â  Â  Â  Â  Â  #List 2D of SystemProcesses [os_process,pid,name,status,create_time,cpu_usage,cpu_cores,memory,user]&#xa;Â  Â Â &#xa;Â  Â  user_name = &quot;&quot;Â  Â  Â  Â  Â  Â  Â  #Active User&#xa;Â  Â  user_started = 0Â  Â  Â  Â  Â  Â  #Last startup&#xa;Â  Â  user_terminal = NoneÂ  Â  Â  Â  #Terminalmodus&#xa;Â  Â Â &#xa;Â  Â  cpu_machine = &quot;&quot;Â  Â  Â  Â  Â  Â  #Machinearch. &quot;AMD64&quot;&#xa;Â  Â  cpu_name = &quot;&quot;Â  Â  Â  Â  Â  Â  Â  Â #CPU Name &quot;Intel64 Family 6 Model 60 Stepping 3, GenuineIntel&quot;&#xa;Â  Â  cpu_realCores=0Â  Â  Â  Â  Â  Â  Â #Real Cores on CPU&#xa;Â  Â  cpu_logiCores=0Â  Â  Â  Â  Â  Â  Â #Logic Cores in CPU&#xa;Â  Â  cpu_frqMax=0Â  Â  Â  Â  Â  Â  Â  Â  #Max Frequence of CPU&#xa;Â  Â  cpu_frqCur=0Â  Â  Â  Â  Â  Â  Â  Â  #Current Frequence of CPU&#xa;Â  Â  cpu_usage=0Â  Â  Â  Â  Â  Â  Â  Â  Â #CPU usage in %&#xa;Â  Â  cpu_coreUsage=[]Â  Â  Â  Â  Â  Â  #List of logical cores and usage in %&#xa;Â  Â  #cpu_temp=&quot;&quot;Â  Â  Â  Â  Â  Â  Â  Â  Â #FEHLT&#xa;&#xa;Â  Â  ram_total=0Â  Â  Â  Â  Â  Â  Â  Â  Â  #Total RAM&#xa;Â  Â  ram_avail=0Â  Â  Â  Â  Â  Â  Â  Â  Â #Available RAM&#xa;Â  Â  ram_used=0Â  Â  Â  Â  Â  Â  Â  Â  Â  #Used RAM&#xa;Â  Â  ram_perc=0Â  Â  Â  Â  Â  Â  Â  Â  Â  #Used RAM in Percent&#xa;Â  Â  ram_Stotal=0Â  Â  Â  Â  Â  Â  Â  Â  #Total Swap&#xa;Â  Â  ram_Sfree=0Â  Â  Â  Â  Â  Â  Â  Â  Â #Available Swap&#xa;Â  Â  ram_Sused=0Â  Â  Â  Â  Â  Â  Â  Â  Â #Used Swap&#xa;Â  Â  ram_Sperc=0Â  Â  Â  Â  Â  Â  Â  Â  Â #Used Swap in Percent&#xa;&#xa;Â  Â  disk_list=[]Â  Â  Â  Â  Â  Â  Â  Â  Â  Â  Â  #List 2D of all disks connected to PC (device, mountpoint, filesystem, part_usage.total,part_usage.used,part_usage.free,part_usage.percent)&#xa;Â  Â  disk_read=0Â  Â  Â  Â  Â  Â  Â  Â  Â  #Read Bytes since Boot&#xa;Â  Â  disk_write=0Â  Â  Â  Â  Â  Â  Â  Â  Â  #Write Bytes since Boot&#xa;&#xa;Â  Â  gpu_list=[]Â  Â  Â  Â  Â  Â  Â  Â  Â  Â  Â  #List 2D GPU (id, name, usage(%), free mem(byte), used mem(byte), total mem(byte), temperature(Â°C))&#xa;&#xa;Â  Â  if_list=[]Â  Â  Â  Â  Â  Â  Â  Â  Â  Â  Â  Â  Â  #List 2D of Interfaces&#xa;Â  Â  if_bysteSent=0Â  Â  Â  Â  Â  Â  Â  #Network sendet Bytes&#xa;Â  Â  if_bytesRec=0Â  Â  Â  Â  Â  Â  Â  Â #Network recived Bytes" style="text;strokeColor=none;fillColor=none;align=left;verticalAlign=top;spacingLeft=4;spacingRight=4;overflow=hidden;rotatable=0;points=[[0,0.5],[1,0.5]];portConstraint=eastwest;" vertex="1" parent="s83j-BUwnU0X72fGFEWC-46">
          <mxGeometry y="26" width="140" height="584" as="geometry" />
        </mxCell>
      </root>
    </mxGraphModel>
  </diagram>
</mxfile>
